<?xml version="1.0" encoding="UTF-8" standalone="no"?>
<!-- Created with Inkscape (http://www.inkscape.org/) -->

<svg
   width="362.59009"
   height="317.96338"
   viewBox="0 0 181.29504 158.98169"
   version="1.1"
   id="svg1"
   inkscape:version="1.4 (86a8ad7, 2024-10-11)"
   sodipodi:docname="Beqabakes_Logo_Kit.svg"
   xml:space="preserve"
   inkscape:export-filename="Beqabakes_Typography_Selection.pdf"
   inkscape:export-xdpi="96"
   inkscape:export-ydpi="96"
   xmlns:inkscape="http://www.inkscape.org/namespaces/inkscape"
   xmlns:sodipodi="http://sodipodi.sourceforge.net/DTD/sodipodi-0.dtd"
   xmlns="http://www.w3.org/2000/svg"
   xmlns:svg="http://www.w3.org/2000/svg"><sodipodi:namedview
     id="namedview1"
     pagecolor="#ffffff"
     bordercolor="#000000"
     borderopacity="0.25"
     inkscape:showpageshadow="2"
     inkscape:pageopacity="0.0"
     inkscape:pagecheckerboard="0"
     inkscape:deskcolor="#d1d1d1"
     inkscape:document-units="px"
     showgrid="false"
     inkscape:zoom="0.31037089"
     inkscape:cx="4454.3481"
     inkscape:cy="2440.6283"
     inkscape:window-width="1920"
     inkscape:window-height="1046"
     inkscape:window-x="-11"
     inkscape:window-y="-11"
     inkscape:window-maximized="1"
     inkscape:current-layer="layer4"
     showguides="true"><inkscape:grid
       id="grid1"
       units="px"
       originx="-1759.2089"
       originy="-1124.4241"
       spacingx="0.5"
       spacingy="0.5"
       empcolor="#0099e5"
       empopacity="0.30196078"
       color="#0099e5"
       opacity="0.14901961"
       empspacing="10"
       enabled="true"
       visible="false" /><sodipodi:guide
       position="7277.6134,3205.8354"
       orientation="0,-1"
       id="guide223"
       inkscape:locked="false" /><sodipodi:guide
       position="9947.9911,2569.3677"
       orientation="0,528.98047"
       id="guide963"
       inkscape:locked="false" /><sodipodi:guide
       position="10212.481,2569.3677"
       orientation="-528.97949,0"
       id="guide964"
       inkscape:locked="false" /><sodipodi:guide
       position="10212.481,2833.8575"
       orientation="0,-528.98047"
       id="guide965"
       inkscape:locked="false" /><sodipodi:guide
       position="9947.9911,2833.8575"
       orientation="528.97949,0"
       id="guide966"
       inkscape:locked="false" /><sodipodi:guide
       position="9990.2361,2715.6761"
       orientation="56.253908,0"
       id="guide967"
       inkscape:locked="false" /><sodipodi:guide
       position="9990.2361,2687.5492"
       orientation="0,360"
       id="guide968"
       inkscape:locked="false" /><sodipodi:guide
       position="10170.236,2687.5492"
       orientation="-56.253908,0"
       id="guide969"
       inkscape:locked="false" /><sodipodi:guide
       position="10170.236,2715.6761"
       orientation="0,-360"
       id="guide970"
       inkscape:locked="false" /><inkscape:page
       x="0"
       y="0"
       width="181.29504"
       height="158.98169"
       id="page1"
       margin="0"
       bleed="0" /></sodipodi:namedview><defs
     id="defs1" /><g
     inkscape:groupmode="layer"
     id="layer4"
     inkscape:label="Style, Variation &amp; Color Testing"
     style="display:inline"
     transform="translate(-1759.2088,-1124.4241)"><g
       id="g479"
       style="display:inline"
       transform="matrix(0.41401488,0,0,0.41401488,-1850.3791,2243.1779)"><g
         id="g468"
         transform="translate(-909.99998)"><g
           id="g465"><path
             id="path464"
             style="fill:#f58ba6;fill-opacity:1;stroke-width:4.19494;stroke-linecap:square;stroke-linejoin:round"
             d="m 9628.4982,-2488.8735 v 170.6666 h 355.6739 v -0.1565 c 45.8089,-1.6409 82.2209,-38.9533 82.2209,-85.1768 0,-46.2235 -36.412,-83.5359 -82.2209,-85.1769 v -0.1564 z" /><path
             id="path465"
             style="fill:#5e3023;fill-opacity:1;stroke:none;stroke-width:1.06667;stroke-linecap:square;stroke-linejoin:round"
             d="m 9628.4986,-2488.8738 v 54.6778 c 0,0 9.9893,30.4398 42.666,30.6757 42.6756,0.308 46.936,-38.5365 42.9502,-85.3535 z" /></g><g
           id="g467"><path
             id="path466"
             style="fill:#f58ba6;fill-opacity:1;stroke-width:4.19494;stroke-linecap:square;stroke-linejoin:round"
             d="m 9628.4982,-2702.2069 v 170.6667 h 355.6739 v -0.1565 c 45.8089,-1.641 82.2209,-38.9533 82.2209,-85.1768 0,-46.2235 -36.412,-83.5359 -82.2209,-85.1769 v -0.1565 z" /><path
             id="path467"
             style="fill:#5e3023;fill-opacity:1;stroke:none;stroke-width:1.06667;stroke-linecap:square;stroke-linejoin:round"
             d="m 9628.4986,-2702.1873 v 170.6475 h 80.7861 c -2.2672,-17.6565 -4.4988,-35.2177 -5.2002,-51.1104 -1.7055,-38.6459 5.4118,-67.7422 41.7471,-66.2041 77.0995,3.2637 11.2693,110.4802 71.8613,117.3145 h 13.6172 c 86.0727,-7.934 3.1427,-115.4849 85.1885,-117.3145 36.7627,-0.8197 41.7169,33.4915 74.666,32 29.4354,-1.3323 44.1184,-23.594 42.6674,-42.666 -1.383,-18.1623 -8.249,-28.5339 -16.53,-34.54 -10.113,-4.7233 -21.2962,-7.5663 -33.1296,-7.9902 v -0.1368 z" /></g></g><g
         id="g478"
         transform="matrix(0.75716511,0,0,0.75716511,4313.1007,-2344.9883)"><g
           id="g469"
           style="fill:#f58ba6;fill-opacity:1"
           transform="translate(0,1188)"><path
             style="fill:#f58ba6;fill-opacity:1;stroke:none;stroke-width:3.68107;stroke-linecap:square;stroke-linejoin:round"
             d="m 6107.4369,-1540.1325 c 61.0169,22.5029 50.6311,79.192 50.6311,79.192 0,0 51.0638,-27.2626 89.578,21.2047 -5.9107,69.6197 -53.6603,74.8644 -53.6603,74.8644 0,0 35.9178,26.8303 0.8655,91.3092 -72.701,6.491 -85.6833,-32.4559 -85.6833,-32.4559 0,0 -15.146,39.3798 -86.9816,33.3214 -32.023,-58.4204 0,-91.3092 0,-91.3092 0,0 -49.7655,-11.684 -54.9584,-73.1337 31.5903,-47.1693 88.7125,-25.9645 88.7125,-25.9645 0,0 -6.4912,-61.4495 51.4965,-77.0284 z"
             id="path468"
             sodipodi:nodetypes="ccccccccccc" /><path
             style="fill:#f58ba6;fill-opacity:1;stroke:#4b2e2b;stroke-width:8.83457;stroke-linecap:square;stroke-linejoin:miter;stroke-dasharray:none;stroke-opacity:1"
             d="m 6107.4369,-1540.1325 c 61.0169,22.5029 50.6311,79.192 50.6311,79.192 0,0 51.0638,-27.2626 89.578,21.2047 -5.9107,69.6197 -53.6603,74.8644 -53.6603,74.8644 0,0 35.9178,26.8303 0.8655,91.3092 -72.701,6.491 -85.6833,-32.4559 -85.6833,-32.4559 0,0 -15.146,39.3798 -86.9816,33.3214 -32.023,-58.4204 0,-91.3092 0,-91.3092 0,0 -49.7655,-11.684 -54.9584,-73.1337 31.5903,-47.1693 88.7125,-25.9645 88.7125,-25.9645 0,0 -6.4912,-61.4495 51.4965,-77.0284 z"
             id="path469"
             sodipodi:nodetypes="ccccccccccc" /></g><g
           id="g477"
           transform="matrix(2.944857,0,0,2.944857,5252.0997,-6849.3737)"
           style="fill:#ffe3e9;fill-opacity:1"><g
             id="g476"
             style="fill:#ffe3e9;fill-opacity:1"><circle
               style="fill:#ffe3e9;fill-opacity:1;stroke:none;stroke-width:1.63584;stroke-linecap:square;stroke-linejoin:round"
               id="circle469"
               cx="290.89203"
               cy="2256.3777"
               r="2.5" /><g
               id="g471"
               style="fill:#ffe3e9;fill-opacity:1"><g
                 id="g470"
                 style="fill:#ffe3e9;fill-opacity:1"><ellipse
                   style="fill:#ffe3e9;fill-opacity:1;stroke:none;stroke-width:1.25;stroke-linecap:square;stroke-linejoin:round"
                   id="ellipse469"
                   cx="290.89203"
                   cy="2244.6311"
                   rx="2.0572872"
                   ry="7.4944034" /><ellipse
                   style="fill:#ffe3e9;fill-opacity:1;stroke:none;stroke-width:1.25;stroke-linecap:square;stroke-linejoin:round"
                   id="ellipse470"
                   cx="290.89203"
                   cy="2268.1243"
                   rx="2.0572872"
                   ry="7.4944034" /></g></g><g
               id="g473"
               transform="rotate(60,290.89203,2256.3777)"
               style="fill:#ffe3e9;fill-opacity:1"><g
                 id="g472"
                 style="fill:#ffe3e9;fill-opacity:1"><ellipse
                   style="fill:#ffe3e9;fill-opacity:1;stroke:none;stroke-width:1.25;stroke-linecap:square;stroke-linejoin:round"
                   id="ellipse471"
                   cx="290.89203"
                   cy="2244.6311"
                   rx="2.0572872"
                   ry="7.4944034" /><ellipse
                   style="fill:#ffe3e9;fill-opacity:1;stroke:none;stroke-width:1.25;stroke-linecap:square;stroke-linejoin:round"
                   id="ellipse472"
                   cx="290.89203"
                   cy="2268.1243"
                   rx="2.0572872"
                   ry="7.4944034" /></g></g><g
               id="g475"
               transform="rotate(-60,290.89203,2256.3777)"
               style="fill:#ffe3e9;fill-opacity:1"><g
                 id="g474"
                 style="fill:#ffe3e9;fill-opacity:1"><ellipse
                   style="fill:#ffe3e9;fill-opacity:1;stroke:none;stroke-width:1.25;stroke-linecap:square;stroke-linejoin:round"
                   id="ellipse473"
                   cx="290.89203"
                   cy="2244.6311"
                   rx="2.0572872"
                   ry="7.4944034" /><ellipse
                   style="fill:#ffe3e9;fill-opacity:1;stroke:none;stroke-width:1.25;stroke-linecap:square;stroke-linejoin:round"
                   id="ellipse474"
                   cx="290.89203"
                   cy="2268.1243"
                   rx="2.0572872"
                   ry="7.4944034" /></g></g></g></g></g></g></g></svg>
